<svg width="141" height="174" viewBox="0 0 141 174" fill="none" xmlns="http://www.w3.org/2000/svg">
<line x1="49" y1="157.908" x2="49" y2="168.908" stroke="#3E8C41" stroke-width="10" stroke-linecap="round"/>
<line x1="29" y1="152.908" x2="29" y2="163.908" stroke="#3E8C41" stroke-width="10" stroke-linecap="round"/>
<line x1="5.87019" y1="114.034" x2="5.12652" y2="143.038" stroke="#4CAF50" stroke-width="10" stroke-linecap="round"/>
<path d="M94.0246 112.492C94.0246 137.575 72.9765 157.908 47.0123 157.908C21.0481 157.908 0 137.575 0 112.492C0 87.4094 21.0481 67.0759 47.0123 67.0759C72.9765 67.0759 94.0246 87.4094 94.0246 112.492Z" fill="#3E8C41"/>
<path d="M92.959 102.431C81.8763 119.084 61.6631 125.61 47.8116 117.007C33.9601 108.404 31.7155 87.9299 42.7982 71.2769C53.8809 54.6239 74.0941 48.098 87.9456 56.7008C101.797 65.3037 104.042 85.7777 92.959 102.431Z" fill="#3E8C41"/>
<path d="M87.4429 110.79C87.4429 135.155 67.8681 154.908 43.7214 154.908C19.5748 154.908 0 135.155 0 110.79C0 86.4236 19.5748 66.6711 43.7214 66.6711C67.8681 66.6711 87.4429 86.4236 87.4429 110.79Z" fill="#4CAF50"/>
<path d="M86.4518 101.016C76.1449 117.193 57.3467 123.532 44.4648 115.175C31.5829 106.818 29.4954 86.9293 39.8023 70.7521C50.1093 54.5749 68.9075 48.2354 81.7894 56.5925C94.6713 64.9496 96.7587 84.8385 86.4518 101.016Z" fill="#4CAF50"/>
<circle cx="29" cy="111.908" r="21" fill="#F5F5DC"/>
<circle cx="52.5" cy="77.4079" r="9.5" fill="black"/>
<circle cx="73.5" cy="90.4079" r="9.5" fill="black"/>
<path d="M73.248 83.908C75.5411 84.4983 80.0684 86.9247 79.8328 91.908" stroke="white" stroke-width="3" stroke-linecap="round"/>
<path d="M91 59.6389C92.3919 57.7234 96.3127 54.4051 100.86 56.4562" stroke="#3E8C41" stroke-width="3" stroke-linecap="round"/>
<path d="M51 71.5282C53.3676 71.491 58.3754 72.6335 59.4662 77.5016" stroke="white" stroke-width="3" stroke-linecap="round"/>
<path d="M50.5 92.4079C50.5 95.4079 52.6 100.908 61 98.9079" stroke="black" stroke-linecap="round"/>
<ellipse cx="23.3724" cy="99.4079" rx="2.06892" ry="2.82552" transform="rotate(38.1475 23.3724 99.4079)" fill="white"/>
<line x1="24.4056" y1="100.752" x2="27.8438" y2="103.502" stroke="white" stroke-width="2" stroke-linecap="round"/>
<line x1="1" y1="-1" x2="5.40312" y2="-1" transform="matrix(0.780869 -0.624695 -0.624695 -0.780869 23 97.9079)" stroke="white" stroke-width="2" stroke-linecap="round"/>
<line x1="22.1562" y1="100.314" x2="19.4056" y2="103.752" stroke="white" stroke-width="2" stroke-linecap="round"/>
<line x1="22.5858" y1="98.9079" x2="20" y2="96.3222" stroke="white" stroke-width="2" stroke-linecap="round"/>
<line x1="74.8702" y1="133.034" x2="74.1265" y2="162.038" stroke="#4CAF50" stroke-width="10" stroke-linecap="round"/>
<g clip-path="url(#clip0_3_251)">
<path d="M115.114 17.607C112.187 15.5385 108.107 16.2394 106.039 19.1658C104.784 20.9408 104.563 23.1349 105.225 25.0524L66.0694 47.411L66.0487 47.4165C66.0461 47.4202 66.0434 47.4241 66.0408 47.4277C65.9086 47.5024 65.7944 47.6055 65.7067 47.7294L61.7509 53.3259C61.4232 53.7895 61.5334 54.4311 61.997 54.7588L97.8153 80.0762C98.2789 80.4039 98.9205 80.2937 99.2482 79.8301L103.204 74.2335C103.286 74.1167 103.344 73.9841 103.372 73.844C103.374 73.8339 103.375 73.8238 103.376 73.8136C103.379 73.8099 103.382 73.806 103.384 73.8024L111.399 29.4124C113.427 29.3963 115.422 28.4562 116.676 26.6811C118.745 23.7547 118.044 19.6746 115.118 17.6062L115.114 17.607Z" fill="#3B322E"/>
<path d="M106.209 26.856C106.6 27.3689 107.045 27.8498 107.598 28.2405C108.15 28.6312 108.752 28.8905 109.366 29.0873L104.305 57.1201C102.589 56.3908 100.566 56.6395 99.0716 57.8538C97.2926 59.2989 96.6729 61.7577 97.5647 63.8634C98.4043 65.846 100.407 67.0529 102.531 66.9345L101.64 71.8681L78.8165 55.7357C79.3347 55.4684 79.8043 55.0943 80.1618 54.5885C81.3564 52.8985 80.9494 50.5292 79.2594 49.3347C77.5694 48.1402 75.2002 48.5471 74.0056 50.2371C73.6481 50.7429 73.452 51.3104 73.373 51.888L68.4584 48.4142L106.209 26.856Z" fill="#36D7B7"/>
<path d="M103.574 36.3072C101.884 35.1126 99.5151 35.5196 98.3204 37.2098C97.1259 38.8998 97.5329 41.269 99.2229 42.4635C100.913 43.6581 103.282 43.2511 104.477 41.5611C105.671 39.8711 105.264 37.5019 103.574 36.3072Z" fill="#3B322E"/>
<path d="M102.388 37.9862C103.17 38.5394 103.351 39.5918 102.798 40.3744C102.244 41.1572 101.192 41.3377 100.41 40.7845C99.6269 40.2313 99.4462 39.1792 99.9994 38.3965C100.553 37.6139 101.605 37.4331 102.388 37.9862Z" fill="#FCD116"/>
<path d="M95.0063 43.6796C92.698 42.048 89.4734 42.602 87.842 44.9102C86.2104 47.2184 86.7642 50.4429 89.0725 52.0745C91.3807 53.706 94.6053 53.1522 96.2369 50.8439C97.8684 48.5357 97.3145 45.3111 95.0063 43.6796Z" fill="#3B322E"/>
<path d="M93.8196 45.3586C95.2204 46.3487 95.548 48.2564 94.5579 49.6572C93.5677 51.0581 91.6601 51.3856 90.2593 50.3955C88.8584 49.4053 88.5308 47.4978 89.521 46.0969C90.5111 44.6961 92.4187 44.3684 93.8196 45.3586Z" fill="#FCD116"/>
<path d="M103.922 59.2295L102.904 64.8669C102.819 64.8601 102.734 64.8637 102.65 64.8778C101.286 65.0615 99.9919 64.3235 99.4567 63.06C98.9217 61.7966 99.288 60.3256 100.366 59.4503C101.4 58.61 102.823 58.537 103.922 59.2295Z" fill="#FCD116"/>
<path d="M78.0725 51.0136C78.8551 51.5668 79.0359 52.619 78.4827 53.4017C77.9294 54.1845 76.8773 54.365 76.0947 53.8118C75.3119 53.2586 75.1312 52.2065 75.6845 51.4238C76.2376 50.6412 77.2898 50.4603 78.0725 51.0136Z" fill="#FCD116"/>
<path d="M113.927 19.286C115.946 20.7132 116.421 23.4761 114.993 25.4952C113.566 27.5143 110.803 27.9888 108.784 26.5617C106.765 25.1345 106.291 22.3716 107.718 20.3525C109.145 18.3334 111.908 17.8589 113.927 19.286Z" fill="#F29F4A"/>
<path d="M66.7928 49.755L100.932 73.8856L98.163 77.8032L64.0237 53.6726L66.7928 49.755Z" fill="#F29F4A"/>
<path d="M113.927 19.286C113.662 19.0989 113.383 18.9498 113.097 18.8272C114.495 20.3405 114.695 22.6526 113.455 24.4071C112.214 26.1615 109.968 26.7445 108.075 25.9322C108.286 26.1602 108.52 26.3743 108.785 26.5613C110.804 27.9884 113.567 27.5138 114.994 25.4947C116.421 23.4757 115.946 20.7127 113.927 19.2856L113.927 19.286Z" fill="#C27F3B"/>
<path d="M109.366 29.0873C108.812 28.9097 108.273 28.6666 107.766 28.3365L102.765 56.0323C101.05 55.303 99.0271 55.5517 97.5326 56.766C95.7536 58.2111 95.1338 60.6699 96.0256 62.7756C96.5326 63.9728 97.4675 64.8799 98.5935 65.3903C98.1702 64.955 97.8124 64.4479 97.5647 63.8634C96.6731 61.7578 97.2929 59.2989 99.0717 57.8539C100.566 56.6399 102.589 56.391 104.305 57.1202L109.366 29.0873Z" fill="#2BAC92"/>
<path d="M77.7203 48.2468C76.0302 47.0522 73.6611 47.4592 72.4665 49.1492C72.109 49.655 71.9129 50.2225 71.8339 50.8001L73.373 51.888C73.4521 51.3104 73.6481 50.7429 74.0056 50.2371C75.0113 48.8143 76.8465 48.3164 78.4112 48.9022C78.209 48.6621 77.988 48.4354 77.7207 48.2465L77.7203 48.2468Z" fill="#2BAC92"/>
<path d="M102.531 66.9345C101.947 66.9669 101.375 66.8892 100.831 66.7328L100.101 70.7803L101.64 71.8682L102.531 66.9345Z" fill="#2BAC92"/>
<path d="M99.3931 72.7978L96.624 76.7154L98.1631 77.8033L100.932 73.8857L99.3931 72.7978Z" fill="#C27F3B"/>
</g>
<defs>
<clipPath id="clip0_3_251">
<rect width="61" height="61" fill="white" transform="translate(90.209) rotate(35.2538)"/>
</clipPath>
</defs>
</svg>
