<svg width="126" height="149" viewBox="0 0 126 149" fill="none" xmlns="http://www.w3.org/2000/svg">
<line x1="49" y1="132.908" x2="49" y2="143.908" stroke="#3E8C41" stroke-width="10" stroke-linecap="round"/>
<line x1="29" y1="127.908" x2="29" y2="138.908" stroke="#3E8C41" stroke-width="10" stroke-linecap="round"/>
<line x1="5.87019" y1="89.0345" x2="5.12652" y2="118.038" stroke="#4CAF50" stroke-width="10" stroke-linecap="round"/>
<path d="M94.0246 87.4919C94.0246 112.575 72.9765 132.908 47.0123 132.908C21.0481 132.908 0 112.575 0 87.4919C0 62.4094 21.0481 42.0759 47.0123 42.0759C72.9765 42.0759 94.0246 62.4094 94.0246 87.4919Z" fill="#3E8C41"/>
<path d="M92.959 77.4307C81.8763 94.0837 61.6631 100.61 47.8116 92.0068C33.9601 83.4039 31.7155 62.9299 42.7982 46.2769C53.8809 29.6239 74.0941 23.098 87.9456 31.7008C101.797 40.3037 104.042 60.7777 92.959 77.4307Z" fill="#3E8C41"/>
<path d="M87.4429 85.7895C87.4429 110.155 67.8681 129.908 43.7214 129.908C19.5748 129.908 0 110.155 0 85.7895C0 61.4236 19.5748 41.6711 43.7214 41.6711C67.8681 41.6711 87.4429 61.4236 87.4429 85.7895Z" fill="#4CAF50"/>
<path d="M86.4518 76.0158C76.1449 92.193 57.3467 98.5325 44.4648 90.1754C31.5829 81.8183 29.4954 61.9293 39.8023 45.7521C50.1093 29.5749 68.9075 23.2354 81.7894 31.5925C94.6713 39.9496 96.7587 59.8385 86.4518 76.0158Z" fill="#4CAF50"/>
<circle cx="29" cy="86.908" r="21" fill="#F5F5DC"/>
<path d="M91 34.6389C92.3919 32.7234 96.3127 29.4051 100.86 31.4562" stroke="#3E8C41" stroke-width="3" stroke-linecap="round"/>
<path d="M50.5 67.408C50.5 70.408 52.6 75.908 61 73.908" stroke="black" stroke-linecap="round"/>
<ellipse cx="23.3724" cy="74.408" rx="2.06892" ry="2.82552" transform="rotate(38.1475 23.3724 74.408)" fill="white"/>
<line x1="24.4056" y1="75.7518" x2="27.8438" y2="78.5024" stroke="white" stroke-width="2" stroke-linecap="round"/>
<line x1="1" y1="-1" x2="5.40312" y2="-1" transform="matrix(0.780869 -0.624695 -0.624695 -0.780869 23 72.908)" stroke="white" stroke-width="2" stroke-linecap="round"/>
<line x1="22.1562" y1="75.3135" x2="19.4056" y2="78.7518" stroke="white" stroke-width="2" stroke-linecap="round"/>
<line x1="22.5858" y1="73.908" x2="20" y2="71.3222" stroke="white" stroke-width="2" stroke-linecap="round"/>
<line x1="74.8702" y1="108.034" x2="74.1265" y2="137.038" stroke="#4CAF50" stroke-width="10" stroke-linecap="round"/>
<path d="M62.7727 41.1587C58.2843 37.3885 51.6315 37.9671 47.8613 42.4555C44.0911 46.944 44.6697 53.5968 49.1582 57.367C53.6466 61.1372 60.2994 60.5586 64.0696 56.0701C67.8398 51.5817 67.2612 44.9289 62.7727 41.1587Z" fill="#FB9E75"/>
<path d="M44.0336 40.3036L45.4625 42.7797L47.7665 40.0368L45.0809 39.0569L44.0336 40.3036Z" fill="#AFBCF3"/>
<path d="M84.5293 59.4336C80.0409 55.6634 73.3881 56.242 69.6179 60.7305C65.8477 65.219 66.4263 71.8718 70.9147 75.642C75.4032 79.4122 82.056 78.8336 85.8262 74.3451C89.5964 69.8566 88.9555 63.1515 84.5293 59.4336Z" fill="#FB9E75"/>
<path d="M85.921 76.7639L88.6065 77.7438L89.6538 76.497L88.225 74.0209L85.921 76.7639Z" fill="#AFBCF3"/>
<path d="M88.983 72.1058C90.878 67.3182 89.691 61.6428 85.5142 58.1345C80.5894 53.9977 73.2284 54.4068 68.8323 59.0075L65.84 56.494C69.6127 51.3697 68.8072 44.101 63.82 39.9119C59.6432 36.4035 53.8482 36.2141 49.4596 38.9072L44.5672 37.1368L42.1061 40.0668L44.5898 44.7048C42.6947 49.4924 43.8817 55.1677 48.0585 58.6761C52.9833 62.8129 60.3443 62.4038 64.7404 57.8031L67.795 60.369C64.0224 65.4933 64.8279 72.762 69.8151 76.9511C73.9918 80.4595 79.7345 80.7112 84.1231 78.0181L89.1826 79.7162L91.696 76.7239L88.983 72.1058ZM45.4625 42.7797L44.086 40.2413L45.0809 39.0569L47.7665 40.0368L45.4625 42.7797ZM49.1058 57.4293C44.6173 53.6591 44.0387 47.0063 47.8089 42.5179C51.5791 38.0294 58.2319 37.4508 62.7204 41.221C67.2088 44.9912 67.7874 51.644 64.0172 56.1325C60.247 60.6209 53.5942 61.1995 49.1058 57.4293ZM70.8 75.6519C66.3115 71.8817 65.7329 65.2289 69.5031 60.7405C73.2733 56.252 79.9261 55.6734 84.4146 59.4436C88.9031 63.2138 89.4817 69.8666 85.7115 74.3551C81.9413 78.8435 75.2885 79.4221 70.8623 75.7043L70.8 75.6519ZM88.6065 77.7438L85.8686 76.8262L88.225 74.0209L89.6538 76.497L88.6065 77.7438Z" fill="#584ACC"/>
<path d="M82.4472 61.4061C82.4166 61.3018 82.3655 61.2048 82.2968 61.1206C82.2282 61.0364 82.1433 60.9668 82.0474 60.916C81.9514 60.8651 81.8462 60.8339 81.738 60.8243C81.6298 60.8147 81.5208 60.8268 81.4173 60.86L70.6053 64.1117C70.5011 64.1423 70.404 64.1934 70.3199 64.2621C70.2357 64.3308 70.1661 64.4156 70.1152 64.5116C70.0643 64.6075 70.0332 64.7127 70.0236 64.8209C70.0139 64.9291 70.0261 65.0382 70.0592 65.1416L70.2662 65.5281C70.363 65.6094 70.4774 65.667 70.6003 65.6965C70.7232 65.7259 70.8513 65.7263 70.9744 65.6976L81.7864 62.4459C81.9021 62.4288 82.0127 62.387 82.1107 62.3234C82.2088 62.2598 82.292 62.1758 82.3547 62.0771C82.4174 61.9785 82.4581 61.8675 82.474 61.7517C82.49 61.6359 82.4808 61.518 82.4472 61.4061ZM81.9211 65.3234C81.8905 65.2192 81.8394 65.1222 81.7707 65.038C81.7021 64.9538 81.6173 64.8842 81.5213 64.8333C81.4253 64.7825 81.3201 64.7513 81.2119 64.7417C81.1037 64.7321 80.9947 64.7442 80.8913 64.7774L75.5376 66.3409C75.4334 66.3715 75.3363 66.4226 75.2521 66.4913C75.168 66.5599 75.0984 66.6448 75.0475 66.7407C74.9966 66.8367 74.9655 66.9419 74.9558 67.0501C74.9462 67.1583 74.9584 67.2673 74.9915 67.3708L75.1985 67.7573C75.2953 67.8386 75.4097 67.8962 75.5326 67.9256C75.6555 67.9551 75.7836 67.9555 75.9067 67.9268L81.2603 66.3633C81.376 66.3462 81.4866 66.3044 81.5846 66.2408C81.6827 66.1772 81.7659 66.0932 81.8286 65.9945C81.8913 65.8959 81.932 65.7849 81.948 65.6691C81.9639 65.5533 81.9548 65.4354 81.9211 65.3234ZM61.0023 43.3929C60.9717 43.2887 60.9206 43.1916 60.852 43.1074C60.7833 43.0233 60.6985 42.9537 60.6025 42.9028C60.5065 42.8519 60.4013 42.8207 60.2931 42.8111C60.1849 42.8015 60.0759 42.8137 59.9725 42.8468L49.1605 46.0986C49.0562 46.1292 48.9592 46.1803 48.875 46.249C48.7908 46.3176 48.7212 46.4024 48.6703 46.4984C48.6195 46.5944 48.5883 46.6996 48.5787 46.8078C48.5691 46.916 48.5812 47.025 48.6144 47.1284L48.8214 47.5149C48.9181 47.5962 49.0325 47.6539 49.1554 47.6833C49.2783 47.7127 49.4064 47.7131 49.5295 47.6845L60.3415 44.4327C60.4572 44.4157 60.5678 44.3739 60.6658 44.3103C60.7639 44.2466 60.8471 44.1626 60.9098 44.064C60.9725 43.9653 61.0132 43.8543 61.0292 43.7385C61.0451 43.6227 61.036 43.5048 61.0023 43.3929ZM60.4762 47.3103C60.4457 47.2061 60.3945 47.109 60.3259 47.0248C60.2572 46.9407 60.1724 46.8711 60.0764 46.8202C59.9804 46.7693 59.8753 46.7381 59.7671 46.7285C59.6589 46.7189 59.5498 46.731 59.4464 46.7642L54.0927 48.3278C53.9885 48.3583 53.8915 48.4095 53.8073 48.4781C53.7231 48.5468 53.6535 48.6316 53.6026 48.7276C53.5518 48.8236 53.5206 48.9287 53.511 49.0369C53.5014 49.1451 53.5135 49.2542 53.5467 49.3576L53.7536 49.7441C53.8504 49.8254 53.9648 49.883 54.0877 49.9125C54.2106 49.9419 54.3387 49.9423 54.4618 49.9137L59.8155 48.3501C59.9311 48.3331 60.0417 48.2913 60.1398 48.2277C60.2378 48.164 60.321 48.08 60.3837 47.9814C60.4464 47.8827 60.4871 47.7717 60.5031 47.6559C60.5191 47.5401 60.5099 47.4222 60.4762 47.3103Z" fill="white"/>
</svg>
