<svg width="250" height="200" viewBox="0 0 250 200" fill="none" xmlns="http://www.w3.org/2000/svg">
<g clip-path="url(#clip0_105_2)">
<path opacity="0.989" fill-rule="evenodd" clip-rule="evenodd" d="M121.812 0.0560912C135.381 -0.460746 148.076 2.59411 159.899 9.22067C168.517 8.8026 177.106 9.16094 185.667 10.2955C186.763 10.4719 187.854 10.6604 188.945 10.8612C189.751 11.0109 190.524 11.2561 191.262 11.5967C191.337 11.7098 191.337 11.823 191.262 11.9361C189.787 13.5687 188.506 15.3413 187.419 17.2538C185.356 20.82 183.378 24.4406 181.486 28.1156C193.794 45.0465 198.107 63.866 194.426 84.574C190.199 104.236 179.745 119.567 163.064 130.567C146.199 140.942 128.079 143.997 108.702 139.731C100.63 137.839 93.1714 134.596 86.3244 130.001C86.8425 127.011 87.4828 124.051 88.2457 121.119C103.113 131.673 119.538 135.274 137.522 131.924C156.203 127.66 170.273 117.231 179.734 100.64C187.328 86.2737 189.21 71.1882 185.385 55.3831C183.638 48.6417 180.849 42.3812 177.022 36.6012C171.257 47.7172 165.042 58.5413 158.373 69.0733C153.911 76.0427 148.9 82.6051 143.342 88.7603C139.728 92.6829 135.716 96.0962 131.306 98.9996C126.976 101.809 122.229 103.336 117.065 103.582C113.518 103.496 110.165 102.647 107.007 101.036C102.87 98.7065 99.2719 95.7084 96.2136 92.0412C95.269 90.8884 94.346 89.7192 93.4445 88.5339C87.446 100.364 83.2265 112.81 80.7866 125.871C80.6677 125.888 80.5546 125.869 80.4475 125.814C63.472 111.51 54.7697 93.1805 54.3403 70.827C54.6025 51.5851 61.3271 35.0475 74.5139 21.2138C87.5765 8.21903 103.342 1.16648 121.812 0.0560912ZM123.733 8.42867C129.955 8.35682 136.058 9.1676 142.042 10.8612C133.304 12.2938 124.865 14.7452 116.726 18.2155C93.9075 28.4384 81.664 46.0886 79.9956 71.1663C80.0331 71.3738 80.0708 71.5814 80.1084 71.7886C84.0485 67.2026 88.4186 63.0917 93.2185 59.4562C95.2756 51.1864 99.2123 43.9828 105.029 37.8458C111.924 30.7802 120.005 25.4813 129.271 21.9493C136.277 19.1285 143.547 17.4313 151.084 16.8578C159.803 16.0572 168.506 16.2081 177.191 17.3104C169.202 32.7696 160.066 47.4594 149.784 61.3796C145.622 66.7927 141.083 71.903 136.165 76.7104C133.262 79.3536 130.135 81.6919 126.785 83.7253C124.349 85.1037 121.75 86.0091 118.987 86.4406C115.192 86.8337 111.839 85.8154 108.928 83.3858C105.956 80.6228 103.695 77.3605 102.147 73.5991C109.4 63.8669 117.764 55.1737 127.237 47.5196C136.741 39.7977 147.025 33.2355 158.091 27.8326C141.974 30.6417 127.319 36.8268 114.127 46.3881C102.912 54.7865 93.3619 64.7617 85.4769 76.3145C79.9367 84.462 75.2089 93.0981 71.293 102.224C63.5289 88.7011 61.0613 74.2565 63.8904 58.8904C67.3754 42.5668 75.833 29.5365 89.2628 19.7995C99.6275 12.626 111.118 8.83577 123.733 8.42867Z" fill="url(#paint0_linear_105_2)"/>
<path d="M5.63904 186.768H0V173.596C0 169.95 1.28249 166.843 3.84745 164.275C6.41243 161.708 9.51587 160.424 13.1577 160.424C16.7996 160.424 19.903 161.708 22.468 164.275C25.0329 166.843 26.3154 169.95 26.3154 173.596V186.768H20.6764V173.596C20.6764 171.518 19.9422 169.744 18.4737 168.274C17.0052 166.804 15.2332 166.069 13.1577 166.069C11.0822 166.069 9.31027 166.804 7.84176 168.274C6.37327 169.744 5.63904 171.518 5.63904 173.596V186.768ZM35.7138 173.596C35.7138 175.674 36.448 177.448 37.9166 178.918C39.385 180.388 41.1569 181.123 43.2325 181.123C45.308 181.123 47.0799 180.388 48.5486 178.918C50.0169 177.448 50.7513 175.674 50.7513 173.596V160.424H56.3904V173.596C56.3904 177.242 55.1079 180.349 52.5429 182.916C49.9779 185.484 46.8744 186.768 43.2325 186.768C39.5907 186.768 36.4872 185.484 33.9223 182.916C31.3573 180.349 30.0748 177.242 30.0748 173.596V160.424H35.7138V173.596ZM65.7886 166.069V173.596C65.7886 175.674 66.5228 177.448 67.9914 178.918C69.4598 180.388 71.232 181.123 73.3073 181.123V186.768C69.6655 186.768 66.562 185.484 63.9971 182.916C61.4321 180.349 60.1496 177.242 60.1496 173.596V152.897H65.7886V160.424H73.3073V166.069H65.7886ZM77.0667 173.596C77.0667 169.95 78.3492 166.843 80.9142 164.275C83.4792 161.708 86.5826 160.424 90.2244 160.424V166.069C88.1488 166.069 86.3769 166.804 84.9085 168.274C83.4399 169.744 82.7057 171.518 82.7057 173.596V186.768H77.0667V173.596ZM99.6229 160.424V186.768H93.9838V160.424H99.6229ZM96.8033 158.542C96.0201 158.542 95.3543 158.267 94.806 157.719C94.258 157.17 93.9838 156.503 93.9838 155.719C93.9838 154.935 94.258 154.269 94.806 153.72C95.3543 153.171 96.0201 152.897 96.8033 152.897C97.5866 152.897 98.2523 153.171 98.8004 153.72C99.3487 154.269 99.6229 154.935 99.6229 155.719C99.6229 156.503 99.3487 157.17 98.8004 157.719C98.2523 158.267 97.5866 158.542 96.8033 158.542ZM113.221 173.596L103.382 160.424H110.049L116.54 169.127L123.031 160.424H129.698L119.888 173.596L129.698 186.768H123.031L116.54 178.065L110.049 186.768H103.382L108.302 180.182L113.221 173.596ZM151.931 178.918C153.399 177.448 154.133 175.674 154.133 173.596C154.133 171.518 153.399 169.744 151.931 168.274C150.462 166.804 148.69 166.069 146.615 166.069C144.539 166.069 142.767 166.804 141.299 168.274C139.83 169.744 139.096 171.518 139.096 173.596C139.096 175.674 139.83 177.448 141.299 178.918C142.767 180.388 144.539 181.123 146.615 181.123C148.69 181.123 150.462 180.388 151.931 178.918ZM133.457 173.596C133.457 169.95 134.739 166.843 137.304 164.275C139.869 161.708 142.973 160.424 146.615 160.424C150.256 160.424 153.36 161.708 155.925 164.275C158.49 166.843 159.772 169.95 159.772 173.596C159.772 177.242 158.49 180.349 155.925 182.916C153.36 185.484 150.256 186.768 146.615 186.768C143.776 186.768 141.269 185.994 139.096 184.445V194.295H133.457V173.596ZM169.171 152.897V186.768H163.532V152.897H169.171ZM186.088 186.768C182.446 186.768 179.343 185.484 176.778 182.916C174.213 180.349 172.93 177.242 172.93 173.596C172.93 169.95 174.213 166.843 176.778 164.275C179.343 161.708 182.446 160.424 186.088 160.424C189.73 160.424 192.833 161.708 195.398 164.275C197.963 166.843 199.246 169.95 199.246 173.596C199.246 177.242 197.963 180.349 195.398 182.916C192.833 185.484 189.73 186.768 186.088 186.768ZM186.088 181.123C188.163 181.123 189.935 180.388 191.404 178.918C192.872 177.448 193.607 175.674 193.607 173.596C193.607 171.518 192.872 169.744 191.404 168.274C189.935 166.804 188.163 166.069 186.088 166.069C184.013 166.069 182.24 166.804 180.772 168.274C179.303 169.744 178.569 171.518 178.569 173.596C178.569 175.674 179.303 177.448 180.772 178.918C182.24 180.388 184.013 181.123 186.088 181.123ZM203.005 173.596C203.005 169.95 204.287 166.843 206.852 164.275C209.417 161.708 212.521 160.424 216.163 160.424V166.069C214.087 166.069 212.315 166.804 210.847 168.274C209.378 169.744 208.644 171.518 208.644 173.596V186.768H203.005V173.596ZM225.796 175.478C226.109 176.771 226.765 177.918 227.764 178.918C229.232 180.388 231.004 181.123 233.08 181.123C235.155 181.123 236.927 180.388 238.396 178.918L238.425 178.888L242.419 182.887L242.39 182.916C239.825 185.484 236.722 186.768 233.08 186.768C229.438 186.768 226.334 185.484 223.77 182.916C221.205 180.349 219.922 177.242 219.922 173.596C219.922 169.95 221.205 166.843 223.77 164.275C226.334 161.708 229.438 160.424 233.08 160.424C236.722 160.424 239.825 161.708 242.39 164.275C244.955 166.843 246.238 169.95 246.238 173.596C246.238 174.223 246.18 174.85 246.062 175.478H244.358H225.796ZM239.6 169.832C239.287 169.283 238.885 168.764 238.396 168.274C236.927 166.804 235.155 166.069 233.08 166.069C231.004 166.069 229.232 166.804 227.764 168.274C227.274 168.764 226.873 169.283 226.56 169.832H239.6Z" fill="#3E8C41"/>
</g>
<defs>
<linearGradient id="paint0_linear_105_2" x1="189.72" y1="1.29115e-05" x2="44.2909" y2="20.5176" gradientUnits="userSpaceOnUse">
<stop stop-color="#43C806"/>
<stop offset="1" stop-color="#1C762F"/>
</linearGradient>
<clipPath id="clip0_105_2">
<rect width="250" height="200" fill="white"/>
</clipPath>
</defs>
</svg>
