<svg width="54" height="54" viewBox="0 0 54 54" fill="none" xmlns="http://www.w3.org/2000/svg">
<path fill-rule="evenodd" clip-rule="evenodd" d="M22 47.25H31.9999C39.0224 47.25 42.5335 47.25 45.0558 45.5954C46.1475 44.879 47.0851 43.9585 47.8147 42.8866C49.5 40.4102 49.5 36.9628 49.5 30.0681C49.5 23.1736 49.5 19.7262 47.8147 17.2499C47.0851 16.1778 46.1475 15.2573 45.0558 14.541C43.4349 13.4778 41.4061 13.0978 38.2995 12.9619C36.817 12.9619 35.5408 11.859 35.2501 10.4318C34.8138 8.291 32.8993 6.75 30.6758 6.75H23.3242C21.1006 6.75 19.1861 8.291 18.75 10.4318C18.4593 11.859 17.1829 12.9619 15.7005 12.9619C12.594 13.0978 10.565 13.4778 8.94429 14.541C7.85239 15.2573 6.91488 16.1778 6.1853 17.2499C4.5 19.7262 4.5 23.1736 4.5 30.0681C4.5 36.9628 4.5 40.4102 6.1853 42.8866C6.91488 43.9585 7.85239 44.879 8.94429 45.5954C11.4665 47.25 14.9777 47.25 22 47.25ZM27 20.8636C21.8223 20.8636 17.625 24.9847 17.625 30.0681C17.625 35.1517 21.8223 39.2726 27 39.2726C32.1777 39.2726 36.3751 35.1517 36.3751 30.0681C36.3751 24.9847 32.1777 20.8636 27 20.8636ZM27 24.5455C23.8934 24.5455 21.375 27.018 21.375 30.0681C21.375 33.1182 23.8934 35.591 27 35.591C30.1066 35.591 32.625 33.1182 32.625 30.0681C32.625 27.018 30.1066 24.5455 27 24.5455ZM37.6249 22.7045C37.6249 21.6878 38.4644 20.8636 39.5001 20.8636H42.0001C43.0355 20.8636 43.875 21.6878 43.875 22.7045C43.875 23.7213 43.0355 24.5455 42.0001 24.5455H39.5001C38.4644 24.5455 37.6249 23.7213 37.6249 22.7045Z" fill="#111111"/>
</svg>
