<?xml version="1.0" encoding="iso-8859-1"?>
<!-- Uploaded to: SVG Repo, www.svgrepo.com, Generator: SVG Repo Mixer Tools -->
<svg height="800px" width="800px" version="1.1" id="Layer_1" xmlns="http://www.w3.org/2000/svg" xmlns:xlink="http://www.w3.org/1999/xlink" 
	 viewBox="0 0 474.695 474.695" xml:space="preserve">
<g transform="translate(0 -1004.36)" shape-rendering="auto" image-rendering="auto" color-rendering="auto" color-interpolation="sRGB">
	<path style="fill:#3B322E;" d="M237.348,1004.383c-27.888,0-50.667,22.78-50.667,50.667c0,16.915,8.452,31.85,21.27,41.063
		L59.556,1414.071l-0.107,0.128c0,0.035,0,0.072,0,0.107c-0.505,1.068-0.767,2.236-0.768,3.417v53.333c0,4.418,3.582,8,8,8h341.333
		c4.418,0,8-3.582,8-8v-53.333c-0.001-1.112-0.233-2.212-0.683-3.229c-0.034-0.072-0.07-0.143-0.107-0.214c0-0.035,0-0.072,0-0.107
		l-148.459-318.083c12.818-9.213,21.271-24.147,21.271-41.063c0-27.887-22.78-50.667-50.667-50.667L237.348,1004.383z"/>
	<path style="fill:#36D7B7;" d="M222.306,1103.154c4.784,1.506,9.774,2.562,15.042,2.562c5.267,0,10.257-1.056,15.041-2.562
		l93.75,200.875c-14.176,3.07-25.915,13.738-29.958,28.167c-4.814,17.174,2.292,35.583,17.417,44.958
		c14.241,8.828,32.389,7.501,45.355-2.792l16.499,35.354h-217.5c2.092-4.026,3.396-8.513,3.396-13.333
		c0-16.105-13.228-29.333-29.333-29.333s-29.333,13.228-29.333,29.333c0,4.82,1.303,9.307,3.395,13.333H79.243L222.306,1103.154
		L222.306,1103.154z"/>
	<path style="fill:#3B322E;" d="M248.014,1175.049c-16.106,0-29.333,13.228-29.333,29.334c0,16.105,13.228,29.333,29.333,29.333
		s29.333-13.228,29.333-29.333S264.12,1175.05,248.014,1175.049L248.014,1175.049z"/>
	<path style="fill:#FCD116;" d="M248.014,1191.049c7.458,0,13.333,5.876,13.333,13.334c0,7.46-5.875,13.333-13.333,13.333
		c-7.459,0-13.333-5.874-13.333-13.333C234.681,1196.925,240.555,1191.05,248.014,1191.049L248.014,1191.049z"/>
	<path style="fill:#3B322E;" d="M226.681,1260.383c-21.997,0-40,18.004-40,40c0,21.997,18.003,40,40,40c21.996,0,40-18.003,40-40
		C266.681,1278.387,248.677,1260.383,226.681,1260.383z"/>
	<g>
		<path style="fill:#FCD116;" d="M226.681,1276.383c13.349,0,24,10.651,24,24c0,13.35-10.651,24-24,24c-13.35,0-24-10.65-24-24
			C202.681,1287.034,213.331,1276.383,226.681,1276.383z"/>
		<path style="fill:#FCD116;" d="M353.18,1319.154l18.854,40.396c-0.569,0.337-1.094,0.742-1.563,1.208
			c-7.845,7.296-19.382,8.418-28.458,2.792c-9.075-5.625-13.354-16.618-10.438-27.021
			C334.376,1326.542,343.088,1319.688,353.18,1319.154z"/>
		<path style="fill:#FCD116;" d="M152.014,1383.05c7.458,0,13.333,5.875,13.333,13.333c0,7.46-5.875,13.333-13.333,13.333
			c-7.459,0-13.333-5.874-13.333-13.333C138.681,1388.925,144.555,1383.05,152.014,1383.05z"/>
	</g>
	<g>
		<path style="fill:#F29F4A;" d="M237.348,1020.383c19.241,0,34.667,15.426,34.667,34.667s-15.426,34.667-34.667,34.667
			s-34.667-15.426-34.667-34.667S218.107,1020.383,237.348,1020.383z"/>
		<path style="fill:#F29F4A;" d="M74.681,1425.717h325.333v37.333H74.681V1425.717z"/>
	</g>
	<path style="fill:#C27F3B;" d="M237.348,1020.383c-2.522,0-4.97,0.309-7.333,0.811c15.677,3.34,27.333,17.135,27.333,33.854
		c0,16.719-11.657,30.514-27.333,33.854c2.364,0.501,4.812,0.811,7.333,0.811c19.241,0,34.667-15.426,34.667-34.667
		s-15.426-34.667-34.667-34.667V1020.383z"/>
	<g>
		<path style="fill:#2BAC92;" d="M252.389,1103.154c-4.318,1.359-8.835,2.236-13.541,2.416l92.625,198.459
			c-14.176,3.07-25.915,13.738-29.958,28.167c-4.814,17.174,2.292,35.583,17.417,44.958c8.599,5.331,18.615,6.896,28.063,5.082
			c-4.646-0.865-9.197-2.48-13.396-5.082c-15.124-9.376-22.23-27.785-17.417-44.958c4.044-14.427,15.782-25.096,29.958-28.167
			L252.389,1103.154L252.389,1103.154z"/>
		<path style="fill:#2BAC92;" d="M137.348,1367.05c-16.106,0-29.333,13.228-29.333,29.333c0,4.82,1.303,9.307,3.395,13.333h14.667
			c-2.092-4.026-3.395-8.513-3.395-13.333c0-13.559,9.426-24.966,22-28.271c-2.363-0.618-4.786-1.066-7.333-1.066V1367.05z"/>
		<path style="fill:#2BAC92;" d="M378.952,1374.363c-3.566,2.829-7.55,4.905-11.709,6.354l13.541,29h14.667L378.952,1374.363
			L378.952,1374.363z"/>
	</g>
	<path style="fill:#C27F3B;" d="M385.348,1425.717v37.333h14.667v-37.333H385.348z"/>
</g>
</svg>