<svg width="208" height="99" viewBox="0 0 208 99" fill="none" xmlns="http://www.w3.org/2000/svg">
<path d="M8.632 17.584V34H3.664V8.44H7.624L20.836 25.288V8.476H25.804V34H21.664L8.632 17.584ZM30.473 26.944V15.136H35.297V25.9C35.297 27.34 35.561 28.432 36.089 29.176C36.617 29.896 37.397 30.256 38.429 30.256C39.053 30.256 39.665 30.136 40.265 29.896C40.889 29.632 41.453 29.248 41.957 28.744C42.485 28.24 42.929 27.604 43.289 26.836V15.136H48.113V28.6C48.113 29.104 48.197 29.464 48.365 29.68C48.557 29.896 48.857 30.028 49.265 30.076V34C48.785 34.072 48.377 34.12 48.041 34.144C47.729 34.192 47.441 34.216 47.177 34.216C46.313 34.216 45.605 34.024 45.053 33.64C44.525 33.232 44.213 32.68 44.117 31.984L44.009 30.472C43.169 31.744 42.089 32.716 40.769 33.388C39.449 34.036 37.997 34.36 36.413 34.36C34.469 34.36 32.993 33.736 31.985 32.488C30.977 31.216 30.473 29.368 30.473 26.944ZM64.1406 33.028C63.7326 33.196 63.2406 33.388 62.6646 33.604C62.0886 33.82 61.4646 33.988 60.7926 34.108C60.1446 34.252 59.4846 34.324 58.8126 34.324C57.9246 34.324 57.1086 34.168 56.3646 33.856C55.6206 33.544 55.0206 33.052 54.5646 32.38C54.1326 31.684 53.9166 30.784 53.9166 29.68V18.844H51.4326V15.136H53.9166V9.016H58.7406V15.136H62.7006V18.844H58.7406V28.06C58.7646 28.708 58.9446 29.176 59.2806 29.464C59.6166 29.752 60.0366 29.896 60.5406 29.896C61.0446 29.896 61.5366 29.812 62.0166 29.644C62.4966 29.476 62.8806 29.332 63.1686 29.212L64.1406 33.028ZM77.885 19.312C76.421 19.312 75.113 19.6 73.961 20.176C72.809 20.728 71.981 21.532 71.477 22.588V34H66.653V15.136H71.081V19.168C71.753 17.872 72.605 16.852 73.637 16.108C74.669 15.364 75.761 14.956 76.913 14.884C77.177 14.884 77.381 14.884 77.525 14.884C77.669 14.884 77.789 14.896 77.885 14.92V19.312ZM80.5749 34V15.136H85.3989V34H80.5749ZM80.5749 12.508V7.72H85.3989V12.508H80.5749ZM6.328 50.44L12.664 59.872L18.964 50.44H24.364L15.508 63.4L24.076 76H18.676L12.664 66.928L6.616 76H1.18L9.748 63.4L0.892 50.44H6.328ZM37.457 76.36C35.993 76.36 34.697 76.036 33.569 75.388C32.465 74.716 31.601 73.816 30.977 72.688V83.668H26.153V57.136H30.365V60.376C31.085 59.272 31.997 58.408 33.101 57.784C34.205 57.136 35.465 56.812 36.881 56.812C38.153 56.812 39.317 57.064 40.373 57.568C41.453 58.072 42.389 58.78 43.181 59.692C43.973 60.58 44.585 61.612 45.017 62.788C45.473 63.94 45.701 65.188 45.701 66.532C45.701 68.356 45.341 70.012 44.621 71.5C43.925 72.988 42.953 74.176 41.705 75.064C40.481 75.928 39.065 76.36 37.457 76.36ZM35.837 72.256C36.581 72.256 37.253 72.1 37.853 71.788C38.453 71.476 38.969 71.056 39.401 70.528C39.857 69.976 40.193 69.364 40.409 68.692C40.649 67.996 40.769 67.276 40.769 66.532C40.769 65.74 40.637 65.008 40.373 64.336C40.133 63.664 39.773 63.076 39.293 62.572C38.813 62.044 38.249 61.636 37.601 61.348C36.977 61.06 36.293 60.916 35.549 60.916C35.093 60.916 34.625 61 34.145 61.168C33.689 61.312 33.245 61.528 32.813 61.816C32.381 62.104 31.997 62.44 31.661 62.824C31.349 63.208 31.121 63.628 30.977 64.084V68.512C31.265 69.208 31.649 69.844 32.129 70.42C32.633 70.996 33.209 71.452 33.857 71.788C34.505 72.1 35.165 72.256 35.837 72.256ZM48.9334 49.72H53.7574V69.952C53.7574 70.816 53.9014 71.404 54.1894 71.716C54.4774 72.004 54.8734 72.148 55.3774 72.148C55.7614 72.148 56.1574 72.1 56.5654 72.004C56.9734 71.908 57.3334 71.788 57.6454 71.644L58.2934 75.316C57.6454 75.628 56.8894 75.868 56.0254 76.036C55.1614 76.204 54.3814 76.288 53.6854 76.288C52.1734 76.288 50.9974 75.892 50.1574 75.1C49.3414 74.284 48.9334 73.132 48.9334 71.644V49.72ZM69.1072 76.36C67.5712 76.36 66.1912 76.108 64.9672 75.604C63.7432 75.076 62.6992 74.356 61.8352 73.444C60.9952 72.532 60.3472 71.488 59.8912 70.312C59.4352 69.136 59.2072 67.9 59.2072 66.604C59.2072 65.284 59.4352 64.036 59.8912 62.86C60.3472 61.684 60.9952 60.64 61.8352 59.728C62.6992 58.816 63.7432 58.108 64.9672 57.604C66.1912 57.076 67.5712 56.812 69.1072 56.812C70.6432 56.812 72.0112 57.076 73.2112 57.604C74.4352 58.108 75.4792 58.816 76.3432 59.728C77.2072 60.64 77.8552 61.684 78.2872 62.86C78.7432 64.036 78.9712 65.284 78.9712 66.604C78.9712 67.9 78.7432 69.136 78.2872 70.312C77.8552 71.488 77.2072 72.532 76.3432 73.444C75.5032 74.356 74.4712 75.076 73.2472 75.604C72.0232 76.108 70.6432 76.36 69.1072 76.36ZM64.1752 66.604C64.1752 67.708 64.3912 68.692 64.8232 69.556C65.2552 70.396 65.8432 71.056 66.5872 71.536C67.3312 72.016 68.1712 72.256 69.1072 72.256C70.0192 72.256 70.8472 72.016 71.5912 71.536C72.3352 71.032 72.9232 70.36 73.3552 69.52C73.8112 68.656 74.0392 67.672 74.0392 66.568C74.0392 65.488 73.8112 64.516 73.3552 63.652C72.9232 62.788 72.3352 62.116 71.5912 61.636C70.8472 61.156 70.0192 60.916 69.1072 60.916C68.1712 60.916 67.3312 61.168 66.5872 61.672C65.8432 62.152 65.2552 62.824 64.8232 63.688C64.3912 64.528 64.1752 65.5 64.1752 66.604ZM93.4593 61.312C91.9953 61.312 90.6873 61.6 89.5352 62.176C88.3833 62.728 87.5553 63.532 87.0513 64.588V76H82.2273V57.136H86.6553V61.168C87.3273 59.872 88.1793 58.852 89.2113 58.108C90.2433 57.364 91.3353 56.956 92.4873 56.884C92.7513 56.884 92.9553 56.884 93.0993 56.884C93.2433 56.884 93.3633 56.896 93.4593 56.92V61.312ZM104.651 76.36C103.139 76.36 101.771 76.108 100.547 75.604C99.323 75.076 98.279 74.368 97.415 73.48C96.551 72.568 95.879 71.536 95.399 70.384C94.943 69.208 94.715 67.972 94.715 66.676C94.715 64.876 95.111 63.232 95.903 61.744C96.719 60.256 97.871 59.068 99.359 58.18C100.871 57.268 102.647 56.812 104.687 56.812C106.751 56.812 108.515 57.268 109.979 58.18C111.443 59.068 112.559 60.256 113.327 61.744C114.119 63.208 114.515 64.792 114.515 66.496C114.515 66.784 114.503 67.084 114.479 67.396C114.455 67.684 114.431 67.924 114.407 68.116H99.827C99.923 69.076 100.199 69.916 100.655 70.636C101.135 71.356 101.735 71.908 102.455 72.292C103.199 72.652 103.991 72.832 104.831 72.832C105.791 72.832 106.691 72.604 107.531 72.148C108.395 71.668 108.983 71.044 109.295 70.276L113.435 71.428C112.979 72.388 112.319 73.24 111.455 73.984C110.615 74.728 109.619 75.316 108.467 75.748C107.315 76.156 106.043 76.36 104.651 76.36ZM99.719 65.056H109.583C109.487 64.096 109.211 63.268 108.755 62.572C108.323 61.852 107.747 61.3 107.027 60.916C106.307 60.508 105.503 60.304 104.615 60.304C103.751 60.304 102.959 60.508 102.239 60.916C101.543 61.3 100.967 61.852 100.511 62.572C100.079 63.268 99.815 64.096 99.719 65.056Z" fill="#3E8C41"/>
<path d="M135.28 26.728C138.408 19.5274 151.748 13.7194 158.028 11.7155L165.405 9.87277L166.589 16.8546C167.276 22.8411 167.244 36.3594 163.378 43.5949C159.513 50.8305 149.605 47.4708 145.463 45.0842L142.828 49.4747L139.974 47.7616L142.609 43.3712C138.863 40.8237 132.152 33.9285 135.28 26.728Z" fill="#4CAF50" stroke="#1C9B4F"/>
<path d="M161.715 16.0194L145.859 41.4398M140.724 27.6073C140.929 29.9199 142.664 35.2216 147.967 37.9275M161.14 38.3693C159.003 39.2763 153.508 40.2383 148.626 36.8299M144.501 24.7978C144.529 26.9912 145.714 31.9361 150.224 34.1686M161.536 33.2319C159.735 34.1096 155.162 35.175 151.276 32.4151M148.366 22.3397C148.282 24.2481 149.01 28.496 152.594 30.2199M162.679 27.3483C160.99 28.5109 156.873 30.2732 153.913 28.022M152.055 19.1789C151.867 21.0249 152.274 25.0799 155.405 26.532M163.031 22.7817C161.795 23.7805 158.854 25.4026 156.985 23.9005M156.622 16.5453C156.27 18.0751 156.06 21.3366 158.039 22.1443M164.964 18.5668C163.876 19.4368 161.283 20.8441 159.618 19.5128" stroke="#00A500"/>
<path d="M163.703 33.2871C166.83 26.0866 180.171 20.2786 186.451 18.2746L193.828 16.4319L195.012 23.4138C195.699 29.4003 195.667 42.9185 191.801 50.1541C187.936 57.3896 178.028 54.03 173.886 51.6434L171.25 56.0338L168.397 54.3208L171.032 49.9303C167.286 47.3828 160.575 40.4877 163.703 33.2871Z" fill="#4CAF50" stroke="#1C9B4F"/>
<path d="M190.138 22.5785L174.282 47.999M169.147 34.1664C169.352 36.479 171.086 41.7807 176.39 44.4866M189.563 44.9284C187.426 45.8354 181.931 46.7974 177.049 43.389M172.924 31.3569C172.952 33.5503 174.136 38.4952 178.647 40.7277M189.959 39.791C188.158 40.6687 183.585 41.7341 179.699 38.9742M176.789 28.8988C176.705 30.8072 177.433 35.0551 181.017 36.779M191.102 33.9074C189.413 35.07 185.296 36.8324 182.336 34.5811M180.478 25.738C180.29 27.584 180.697 31.639 183.828 33.0912M191.454 29.3408C190.218 30.3396 187.277 31.9617 185.407 30.4596M185.045 23.1044C184.693 24.6342 184.483 27.8957 186.462 28.7034M193.387 25.1259C192.299 25.996 189.705 27.4032 188.041 26.0719" stroke="#00A500"/>
<path d="M120.772 44.4967C115.374 38.7965 115.26 24.2466 115.878 17.6842L117.075 10.1751L123.962 11.8226C129.739 13.5376 142.163 18.8663 147.304 25.2588C152.445 31.6513 145.47 39.4495 141.651 42.3241L144.657 46.4697L141.962 48.4236L138.956 44.278C135.144 46.7259 126.17 50.1968 120.772 44.4967Z" fill="#4CAF50" stroke="#1C9B4F"/>
<path d="M121.283 15.9789L138.453 40.5313M123.715 39.8325C125.923 40.551 131.48 41.0333 136.049 37.2148M141.619 25.2695C141.616 27.5911 140.347 33.0232 135.297 36.1784M122.611 35.2567C124.64 36.0905 129.653 36.9396 133.475 33.6655M137.048 22.8911C137.149 24.892 136.337 29.517 132.275 32.0098M121.865 30.7378C123.587 31.5631 127.781 32.5582 130.772 29.937M132.083 19.5333C132.491 21.5428 132.498 26.0216 129.267 27.8616M120.403 26.105C122.028 27.0015 125.917 28.2166 128.481 25.9054M128.02 17.4192C128.454 18.9484 128.794 22.2895 126.679 23.4206M119.77 20.871C121.04 21.7946 123.958 23.2658 125.477 21.7623M124.9 13.9888C125.274 15.3313 125.552 18.2685 123.675 19.2775" stroke="#00A500"/>
<path d="M126.504 56.1165C119.144 58.848 105.714 53.2488 99.9194 50.1077L93.4804 46.0632L97.6959 40.373C101.538 35.7311 111.31 26.3906 119.207 24.1668C127.103 21.9431 131.543 31.4166 132.69 36.0569L137.682 34.9167L138.423 38.1616L133.431 39.3018C134.189 43.7685 133.864 53.3849 126.504 56.1165Z" fill="#4CAF50" stroke="#1C9B4F"/>
<path d="M100.469 44.4669L129.787 38.2957M123.367 51.5804C124.893 49.8311 127.516 44.9075 125.794 39.2079M116.988 29.4009C119.122 30.314 123.622 33.6109 124.546 39.4929M118.725 50.8024C120.287 49.2627 123.033 44.9835 121.52 40.1841M113.008 32.6736C114.889 33.3646 118.825 35.9252 119.526 40.6395M114.275 49.7177C115.709 48.4563 118.269 44.9886 117.03 41.2096M107.973 35.9247C109.981 36.3375 114.104 38.0866 114.531 41.7804M109.44 49.2463C110.901 48.1032 113.544 45.0009 112.423 41.7366M104.435 38.8337C106.012 39.0338 109.219 40.0312 109.431 42.4201M104.377 47.7764C105.724 46.9707 108.221 44.8626 107.434 42.8762M100.056 40.3591C101.438 40.5416 104.249 41.4372 104.441 43.5596" stroke="#00A500"/>
<path d="M147.135 63.6587C139.775 60.9281 133.248 47.9237 130.905 41.7628L128.663 34.497L135.57 32.934C141.51 31.9219 155.01 31.2169 162.445 34.6822C169.881 38.1475 167.066 48.2241 164.909 52.4898L169.437 54.8819L167.882 57.8249L163.354 55.4327C161.015 59.3124 154.496 66.3893 147.135 63.6587Z" fill="#4CAF50" stroke="#1C9B4F"/>
<path d="M135.002 37.8461L161.249 52.2931M147.717 58.1742C150.015 57.844 155.214 55.8227 157.627 50.3793M157.35 37.2021C158.372 39.2865 159.632 44.7207 156.495 49.7813M144.705 54.5562C146.894 54.4084 151.767 52.9564 153.75 48.3312M152.198 37.0865C153.173 38.8369 154.486 43.3454 151.942 47.3758M142.04 50.8314C143.95 50.8111 148.152 49.8522 149.678 46.1797M146.261 36.2661C147.514 37.8891 149.498 41.9045 147.412 44.9822M138.683 47.3202C140.537 47.4072 144.563 46.7797 145.843 43.574M141.682 36.1634C142.747 37.3437 144.527 40.1915 143.129 42.1402M135.804 42.9034C137.351 43.1715 140.619 43.2028 141.318 41.1833M137.368 34.4632C138.296 35.5027 139.843 38.0152 138.604 39.7495" stroke="#00A500"/>
<ellipse cx="110.539" cy="24.4454" rx="14.2114" ry="18.5842" transform="rotate(81.2038 110.539 24.4454)" fill="white"/>
<ellipse cx="106.963" cy="22.7863" rx="7.65231" ry="8.7455" transform="rotate(81.2038 106.963 22.7863)" fill="#FFEB3B"/>
<circle cx="109.87" cy="20.1241" r="3.27956" transform="rotate(81.2038 109.87 20.1241)" fill="#F5F5DC"/>
<ellipse cx="14.2114" cy="18.5842" rx="14.2114" ry="18.5842" transform="matrix(-0.97607 0.217456 0.217456 0.97607 176.775 18.4911)" fill="white"/>
<ellipse cx="7.65231" cy="8.7455" rx="7.65231" ry="8.7455" transform="matrix(-0.97607 0.217456 0.217456 0.97607 175.359 32.2463)" fill="#FFEB3B"/>
<circle cx="3.27956" cy="3.27956" r="3.27956" transform="matrix(-0.97607 0.217456 0.217456 0.97607 173.701 34.8558)" fill="#F5F5DC"/>
<g filter="url(#filter0_d_69_80)">
<path d="M125.662 27.2366L156.271 38.1685C154.085 41.8124 146.87 48.0071 135.501 43.6344C124.132 39.2616 124.204 30.8805 125.662 27.2366Z" fill="#DD0000"/>
</g>
<path d="M128.942 31.6093L149.712 39.2616C147.526 41.0836 141.623 44.0717 135.501 41.448C129.379 38.8244 128.577 33.7957 128.942 31.6093Z" fill="#FF5E5E"/>
<ellipse cx="0.546594" cy="1.09319" rx="0.546594" ry="1.09319" transform="matrix(-1 0 0 1 144.246 37.0753)" fill="#BE6B6B" fill-opacity="0.7"/>
<ellipse cx="0.546594" cy="1.09319" rx="0.546594" ry="1.09319" transform="matrix(-1 0 0 1 144.246 37.0753)" fill="#BE6B6B" fill-opacity="0.7"/>
<ellipse cx="0.546594" cy="1.09319" rx="0.546594" ry="1.09319" transform="matrix(-1 0 0 1 144.246 37.0753)" fill="#BE6B6B" fill-opacity="0.7"/>
<ellipse cx="0.546594" cy="1.09319" rx="0.546594" ry="1.09319" transform="matrix(-1 0 0 1 142.06 39.2616)" fill="#BE6B6B" fill-opacity="0.7"/>
<ellipse cx="0.546594" cy="1.09319" rx="0.546594" ry="1.09319" transform="matrix(-1 0 0 1 142.06 39.2616)" fill="#BE6B6B" fill-opacity="0.7"/>
<ellipse cx="0.546594" cy="1.09319" rx="0.546594" ry="1.09319" transform="matrix(-1 0 0 1 142.06 39.2616)" fill="#BE6B6B" fill-opacity="0.7"/>
<ellipse cx="0.546594" cy="1.09319" rx="0.546594" ry="1.09319" transform="matrix(-1 0 0 1 139.873 37.0753)" fill="#BE6B6B" fill-opacity="0.7"/>
<ellipse cx="0.546594" cy="1.09319" rx="0.546594" ry="1.09319" transform="matrix(-1 0 0 1 139.873 37.0753)" fill="#BE6B6B" fill-opacity="0.7"/>
<ellipse cx="0.546594" cy="1.09319" rx="0.546594" ry="1.09319" transform="matrix(-1 0 0 1 139.873 37.0753)" fill="#BE6B6B" fill-opacity="0.7"/>
<ellipse cx="0.546594" cy="1.09319" rx="0.546594" ry="1.09319" transform="matrix(-1 0 0 1 137.687 34.8889)" fill="#BE6B6B" fill-opacity="0.7"/>
<ellipse cx="0.546594" cy="1.09319" rx="0.546594" ry="1.09319" transform="matrix(-1 0 0 1 137.687 34.8889)" fill="#BE6B6B" fill-opacity="0.7"/>
<ellipse cx="0.546594" cy="1.09319" rx="0.546594" ry="1.09319" transform="matrix(-1 0 0 1 137.687 34.8889)" fill="#BE6B6B" fill-opacity="0.7"/>
<ellipse cx="0.546594" cy="1.09319" rx="0.546594" ry="1.09319" transform="matrix(-1 0 0 1 135.501 37.0753)" fill="#BE6B6B" fill-opacity="0.7"/>
<ellipse cx="0.546594" cy="1.09319" rx="0.546594" ry="1.09319" transform="matrix(-1 0 0 1 135.501 37.0753)" fill="#BE6B6B" fill-opacity="0.7"/>
<ellipse cx="0.546594" cy="1.09319" rx="0.546594" ry="1.09319" transform="matrix(-1 0 0 1 135.501 37.0753)" fill="#BE6B6B" fill-opacity="0.7"/>
<g filter="url(#filter1_d_69_80)">
<path d="M155.591 5.3728L124.982 16.3047C127.168 19.9486 134.383 26.1434 145.753 21.7706C157.122 17.3979 157.049 9.01676 155.591 5.3728Z" fill="#DD0000"/>
</g>
<path d="M152.312 9.74557L131.541 17.3979C133.728 19.2199 139.631 22.2079 145.753 19.5843C151.874 16.9606 152.676 11.932 152.312 9.74557Z" fill="#FF5E5E"/>
<ellipse cx="137.554" cy="16.3047" rx="0.546594" ry="1.09319" fill="#BE6B6B" fill-opacity="0.7"/>
<ellipse cx="137.554" cy="16.3047" rx="0.546594" ry="1.09319" fill="#BE6B6B" fill-opacity="0.7"/>
<ellipse cx="137.554" cy="16.3047" rx="0.546594" ry="1.09319" fill="#BE6B6B" fill-opacity="0.7"/>
<ellipse cx="139.74" cy="18.4911" rx="0.546594" ry="1.09319" fill="#BE6B6B" fill-opacity="0.7"/>
<ellipse cx="139.74" cy="18.4911" rx="0.546594" ry="1.09319" fill="#BE6B6B" fill-opacity="0.7"/>
<ellipse cx="139.74" cy="18.4911" rx="0.546594" ry="1.09319" fill="#BE6B6B" fill-opacity="0.7"/>
<ellipse cx="141.926" cy="16.3047" rx="0.546594" ry="1.09319" fill="#BE6B6B" fill-opacity="0.7"/>
<ellipse cx="141.926" cy="16.3047" rx="0.546594" ry="1.09319" fill="#BE6B6B" fill-opacity="0.7"/>
<ellipse cx="141.926" cy="16.3047" rx="0.546594" ry="1.09319" fill="#BE6B6B" fill-opacity="0.7"/>
<ellipse cx="144.113" cy="14.1183" rx="0.546594" ry="1.09319" fill="#BE6B6B" fill-opacity="0.7"/>
<ellipse cx="144.113" cy="14.1183" rx="0.546594" ry="1.09319" fill="#BE6B6B" fill-opacity="0.7"/>
<ellipse cx="144.113" cy="14.1183" rx="0.546594" ry="1.09319" fill="#BE6B6B" fill-opacity="0.7"/>
<ellipse cx="146.299" cy="16.3047" rx="0.546594" ry="1.09319" fill="#BE6B6B" fill-opacity="0.7"/>
<ellipse cx="146.299" cy="16.3047" rx="0.546594" ry="1.09319" fill="#BE6B6B" fill-opacity="0.7"/>
<ellipse cx="146.299" cy="16.3047" rx="0.546594" ry="1.09319" fill="#BE6B6B" fill-opacity="0.7"/>
<defs>
<filter id="filter0_d_69_80" x="124.482" y="27.2366" width="31.7892" height="18.1018" filterUnits="userSpaceOnUse" color-interpolation-filters="sRGB">
<feFlood flood-opacity="0" result="BackgroundImageFix"/>
<feColorMatrix in="SourceAlpha" type="matrix" values="0 0 0 0 0 0 0 0 0 0 0 0 0 0 0 0 0 0 127 0" result="hardAlpha"/>
<feOffset dx="-0.5" dy="0.2"/>
<feComposite in2="hardAlpha" operator="out"/>
<feColorMatrix type="matrix" values="0 0 0 0 0.633333 0 0 0 0 0 0 0 0 0 0 0 0 0 1 0"/>
<feBlend mode="normal" in2="BackgroundImageFix" result="effect1_dropShadow_69_80"/>
<feBlend mode="normal" in="SourceGraphic" in2="effect1_dropShadow_69_80" result="shape"/>
</filter>
<filter id="filter1_d_69_80" x="124.482" y="5.3728" width="31.7892" height="18.1018" filterUnits="userSpaceOnUse" color-interpolation-filters="sRGB">
<feFlood flood-opacity="0" result="BackgroundImageFix"/>
<feColorMatrix in="SourceAlpha" type="matrix" values="0 0 0 0 0 0 0 0 0 0 0 0 0 0 0 0 0 0 127 0" result="hardAlpha"/>
<feOffset dx="-0.5" dy="0.2"/>
<feComposite in2="hardAlpha" operator="out"/>
<feColorMatrix type="matrix" values="0 0 0 0 0.633333 0 0 0 0 0 0 0 0 0 0 0 0 0 1 0"/>
<feBlend mode="normal" in2="BackgroundImageFix" result="effect1_dropShadow_69_80"/>
<feBlend mode="normal" in="SourceGraphic" in2="effect1_dropShadow_69_80" result="shape"/>
</filter>
</defs>
</svg>
