<svg width="45" height="45" viewBox="0 0 45 45" fill="none" xmlns="http://www.w3.org/2000/svg">
<path d="M30.9892 3.75H14.01C11.7547 3.75 10.6271 3.75 9.7209 4.31006C8.81469 4.87013 8.31039 5.87871 7.30181 7.89589L4.67003 14.5487C4.06198 16.0857 3.52999 17.8973 4.55351 19.1953C5.24018 20.0661 6.30458 20.625 7.49959 20.625C9.57066 20.625 11.2496 18.9461 11.2496 16.875C11.2496 18.9461 12.9285 20.625 14.9996 20.625C17.0707 20.625 18.7496 18.9461 18.7496 16.875C18.7496 18.9461 20.4285 20.625 22.4996 20.625C24.5707 20.625 26.2496 18.9461 26.2496 16.875C26.2496 18.9461 27.9285 20.625 29.9996 20.625C32.0707 20.625 33.7496 18.9461 33.7496 16.875C33.7496 18.9461 35.4285 20.625 37.4996 20.625C38.6946 20.625 39.759 20.0661 40.4458 19.1953C41.4694 17.8973 40.9374 16.0857 40.3294 14.5487L37.6976 7.89589C36.6889 5.87871 36.1847 4.87013 35.2785 4.31006C34.3723 3.75 33.2447 3.75 30.9892 3.75Z" fill="black"/>
<path fill-rule="evenodd" clip-rule="evenodd" d="M37.5 39.8438H41.25C42.0266 39.8438 42.6562 40.4734 42.6562 41.25C42.6562 42.0266 42.0266 42.6563 41.25 42.6563H3.75C2.97336 42.6563 2.34375 42.0266 2.34375 41.25C2.34375 40.4734 2.97336 39.8438 3.75 39.8438H7.5V23.4375C8.89431 23.4375 10.187 23.0027 11.25 22.2613C12.313 23.0027 13.6057 23.4375 15 23.4375C16.3943 23.4375 17.687 23.0027 18.75 22.2613C19.8129 23.0027 21.1057 23.4375 22.5 23.4375C23.8942 23.4375 25.1871 23.0027 26.25 22.2613C27.3129 23.0027 28.6057 23.4375 30 23.4375C31.3942 23.4375 32.6871 23.0027 33.75 22.2613C34.8129 23.0027 36.1057 23.4375 37.5 23.4375V39.8438ZM17.8125 39.8438H27.1875V34.6875C27.1875 32.9351 27.1875 32.0589 26.8106 31.4063C26.5639 30.9788 26.2087 30.6236 25.7812 30.3767C25.1286 30 24.2524 30 22.5 30C20.7476 30 19.8714 30 19.2187 30.3767C18.7912 30.6236 18.4361 30.9788 18.1893 31.4063C17.8125 32.0589 17.8125 32.9351 17.8125 34.6875V39.8438Z" fill="black"/>
</svg>
